<?xml version="1.0" encoding="UTF-8" standalone="no"?>
<!-- Created with Inkscape (http://www.inkscape.org/) -->

<svg
   width="182.765mm"
   height="22.764999mm"
   viewBox="0 0 182.765 22.764999"
   version="1.1"
   id="svg5"
   inkscape:version="1.1.2 (0a00cf5339, 2022-02-04)"
   sodipodi:docname="logo.svg"
   xmlns:inkscape="http://www.inkscape.org/namespaces/inkscape"
   xmlns:sodipodi="http://sodipodi.sourceforge.net/DTD/sodipodi-0.dtd"
   xmlns="http://www.w3.org/2000/svg"
   xmlns:svg="http://www.w3.org/2000/svg">
  <sodipodi:namedview
     id="namedview7"
     pagecolor="#505050"
     bordercolor="#eeeeee"
     borderopacity="1"
     inkscape:pageshadow="0"
     inkscape:pageopacity="0"
     inkscape:pagecheckerboard="0"
     inkscape:document-units="mm"
     showgrid="false"
     inkscape:zoom="1.2810466"
     inkscape:cx="447.68083"
     inkscape:cy="173.29581"
     inkscape:window-width="1920"
     inkscape:window-height="1139"
     inkscape:window-x="1200"
     inkscape:window-y="581"
     inkscape:window-maximized="1"
     inkscape:current-layer="layer1" />
  <defs
     id="defs2">
    <inkscape:path-effect
       effect="bspline"
       id="path-effect1041"
       is_visible="true"
       lpeversion="1"
       weight="38.0333"
       steps="2"
       helper_size="0"
       apply_no_weight="true"
       apply_with_weight="true"
       only_selected="false" />
  </defs>
  <g
     inkscape:label="Ebene 1"
     inkscape:groupmode="layer"
     id="layer1">
    <g
       id="g54"
       transform="matrix(0.26458333,0,0,0.26458333,-2.541428,-4.2060298)">
	<path
   d="m 27.96,21.13 c 4.52,-1.31 9.52,-0.56 13.93,0.85 2.54,0.93 1.2,3.99 1.15,5.96 -0.58,2.41 0.86,5.8 -1.83,7.25 -3.28,1.68 -7.09,1.65 -10.66,2.29 -4.02,0.06 -6.73,5.69 -3.84,8.78 2.21,2.08 5.23,3.17 8.12,3.97 8.47,1.51 16.94,3.07 25.38,4.75 4.71,2.45 10.71,4.98 11.95,10.75 1.28,4.97 4.81,9.93 2.8,15.22 -2.37,6.23 -6.19,12.84 -12.72,15.35 -3.29,0.31 -6.64,0.12 -9.86,1.02 -1.41,0.59 -2.54,-0.37 -3.46,-1.32 -0.83,-3.37 -0.26,-6.9 -0.21,-10.32 -0.2,-1.48 1.72,-1.66 2.65,-2.24 3.08,-1.54 7.05,-2.12 9.07,-5.19 1.37,-3.68 -1.38,-6.84 -4.75,-7.9 C 43.6,65.8 29.68,66.65 18.57,59.42 13.32,56.27 10.2,50.43 9.61,44.43 9.47,38.04 12.54,32.25 16.6,27.51 19.16,23.6 23.8,22.44 27.96,21.13 Z"
   id="path16" />

	<path
   d="m 49.73,20.58 c 5.49,-1.09 10.34,2.28 14.91,4.77 2.47,2.86 6.88,4.93 7.15,9.05 -1.47,3.18 -4.16,5.58 -6.55,8.06 -4.76,1.56 -6.76,-3.75 -10.64,-5.09 -2.02,-1 -4.37,-0.71 -6.43,-1.56 -1.79,-3.15 -1.12,-6.89 -1.11,-10.34 -0.13,-2 0.93,-3.91 2.67,-4.89 z"
   id="path18" />

	<path
   d="m 122.52,22.67 c 3.7,-3.63 9.69,-2.54 13.52,0.32 4.28,3 9.17,5.38 12.68,9.32 1.34,1.17 -0.01,2.6 -0.56,3.79 -2.32,3.11 -5.52,5.5 -8.83,7.46 -2.58,0.62 -3.94,-1.89 -5.62,-3.3 -2.65,-2.57 -6.54,-2.87 -9.85,-4.08 -1.87,-0.82 -1.25,-3.06 -1.31,-4.67 0.24,-2.94 0.29,-5.9 -0.03,-8.84 z"
   id="path20" />

	<path
   d="m 168.47,25.5 c 4.33,-1.8 8.92,-2.88 13.15,-4.95 1.33,0.22 2.59,0.74 3.88,1.12 -0.02,5.2 0,10.4 -0.07,15.59 -1.62,0.3 -3.54,0.07 -4.68,1.5 -2.43,2.34 -5.53,3.77 -8.07,5.94 -2.87,3.62 -5.48,7.96 -5.18,12.75 -0.83,6.26 2.87,11.83 6.33,16.69 3.65,3.04 8.61,3.41 12.88,5.17 1.21,1.23 2.03,3.12 1.52,4.86 -0.76,4 0.74,8.01 0.17,12.03 -1.18,2 -3.77,1.35 -5.67,1.09 -5.39,-1.57 -10.69,-3.57 -15.63,-6.27 -2.2,-1.12 -2.97,-3.79 -5.18,-4.93 -4.61,-3.05 -6.58,-8.41 -8.82,-13.18 -2.58,-3.99 -2.7,-8.84 -2.73,-13.43 -0.51,-6.4 1.64,-12.54 3.61,-18.52 1.56,-2.68 3.77,-4.9 5.63,-7.37 2.44,-3.17 5.05,-6.52 8.86,-8.09 z"
   id="path22" />

	<path
   d="m 312.90658,24.69 c 3.98,-1.27 7.89,-2.76 11.84,-4.12 1.36,0.31 2.66,0.81 3.99,1.22 0.4,3.13 -1.29,6.09 -0.72,9.19 0.3,2.03 0.49,4.29 -0.66,6.09 -4.15,1.48 -7.25,4.8 -11.04,6.95 -5.86,4.79 -6.52,13.19 -5.22,20.14 1.56,4.07 3.7,8.13 6.95,11.08 4.01,1.97 8.47,2.84 12.58,4.6 0.36,4.62 -0.37,9.33 0.8,13.87 0.32,1.31 -0.62,2.53 -0.87,3.78 -7.28,0.38 -14.2,-2.95 -20.46,-6.35 -2.59,-2.4 -5.2,-4.78 -7.96,-6.99 -4.48,-5.95 -8.29,-12.92 -8.61,-20.52 -0.76,-3.75 -1.4,-7.75 -0.04,-11.44 1.09,-3.36 1.62,-6.87 2.76,-10.2 2.08,-3.48 4.24,-6.99 7.24,-9.77 2.91,-2.74 5.35,-6.43 9.42,-7.53 z"
   id="path24" />

	<path
   d="m 369.08658,23.73 c 1.43,-1.25 2.49,-3.51 4.7,-3.22 20.97,-0.02 41.94,-0.02 62.91,0.01 1.44,-0.21 2.1,1.41 2.89,2.31 0.32,3.75 0.37,7.57 -0.06,11.31 -1.04,1.68 -2.79,2.6 -4.76,2.36 -8.06,0.01 -16.2,2.24 -24.15,0.12 -2.99,-0.51 -5.81,1.16 -8.8,0.9 -10.59,-0.12 -21.18,0.17 -31.75,-0.16 -2.67,-4.32 1.07,-9.07 -0.98,-13.63 z"
   id="path26" />

	<path
   d="m 470.98658,20.7 c 9.84,1.66 19.9,0.71 29.77,-0.14 1.98,-0.04 5.44,-0.6 5.87,2.11 0.25,4.17 0.25,8.37 0.01,12.53 -1.01,1.78 -3.16,1.25 -4.85,1.4 -11.27,-0.2 -22.54,-0.05 -33.81,-0.1 -1.12,-4.01 -1.97,-8.4 -0.73,-12.47 0.45,-1.83 2.05,-2.8 3.74,-3.33 z"
   id="path28" />

	<path
   d="m 516.74658,22.63 c 1.87,-1.02 3.78,-2.61 6.06,-1.97 3.2,0.59 6.58,-0.04 9.68,1.08 1.52,1.92 1.17,4.44 1.26,6.72 0.02,21.36 0.01,42.73 0.01,64.09 0.44,2.71 -2.24,5.09 -4.84,4.66 -2.94,-0.51 -5.89,0.72 -8.82,0.14 -1.51,-1.24 -3.61,-2.63 -3.33,-4.87 -0.03,-23.28 0.01,-46.57 -0.02,-69.85 z"
   id="path30" />

	<path
   d="m 538.19658,22.93 c 1.42,-3.38 5.69,-2.28 8.57,-2.37 8.87,0.41 19.26,-2.01 26.57,4.45 4.47,4.95 8.99,10.56 9.46,17.52 1.79,7.34 -2.59,13.95 -5.88,20.11 -4.59,5.71 -12.13,7.93 -19.13,8.74 -5.62,0.25 -11.25,0.95 -16.87,0.47 -0.51,-0.4 -1.52,-1.2 -2.03,-1.6 -0.33,-4.81 -0.11,-9.63 -0.04,-14.44 7.34,-2.59 15.21,-0.64 22.79,-1.36 4.61,-0.76 5.81,-6.74 4.86,-10.63 -0.87,-4.96 -5.99,-7.95 -10.68,-8.31 -5.31,-0.08 -10.61,0.03 -15.91,-0.01 -3.13,-3.38 -1.82,-8.4 -1.71,-12.57 z"
   id="path32" />

	<path
   d="m 102.78,21.69 c 4.17,-0.28 8.39,-0.5 12.57,-0.19 1.53,-0.06 2.22,1.78 2.12,3.06 0.03,3.6 -0.04,7.21 0.03,10.81 -3.95,2.65 -8.43,4.32 -12.74,6.27 -3.29,1.31 -4.85,4.73 -6.94,7.34 -2.04,4.87 -1.28,10.28 -1.24,15.4 3.26,9.32 12.13,14.6 20.58,18.61 -0.35,4.69 1.63,10.47 -1.91,14.29 -3.88,-1.06 -8.62,0.29 -11.59,-2.98 C 100,91.39 94.69,91.09 91.72,87.23 87.6,82.17 84.77,76.23 81.04,70.9 79.7,63.99 78.81,56.8 80.02,49.75 c 0.32,-6.89 5.04,-12.41 9.22,-17.49 3.65,-4.59 9.04,-6.99 13.54,-10.57 z"
   id="path34" />

	<path
   d="m 190.51,22.67 c 4.91,-1.86 10.58,-1.77 15.32,0.56 3.89,1.04 5.99,4.84 9.63,6.35 7.35,6.59 11.52,16.23 13.02,25.9 0.52,5.83 -0.35,11.74 -2.92,17.02 -3.28,9.8 -11.72,16.8 -20.46,21.6 -2.97,0.9 -5.87,2.01 -8.63,3.41 -0.96,-0.46 -1.93,-0.91 -2.9,-1.34 -0.03,-4.51 -0.29,-9.04 0.08,-13.53 0.55,-1.57 1.32,-3.38 3.09,-3.87 3.51,-1.26 7.36,-2.12 9.7,-5.3 5.25,-3.91 5.51,-11.03 5.15,-17.01 0.07,-7.77 -5.5,-14.67 -12.43,-17.65 -2.95,-0.57 -5.83,-1.43 -8.62,-2.56 0.43,-4.53 -0.76,-9.1 -0.03,-13.58 z"
   id="path36" />
<path
   d="m 246.4486,49.843257 c 3.01546,-1.253541 6.212,-2.005679 9.15782,-3.447251 0.92624,0.153206 1.80372,0.51535 2.70209,0.779977 -0.0139,3.621348 0,7.242697 -0.0487,10.857072 -1.12818,0.208923 -2.46529,0.04872 -3.25922,1.044617 -1.69228,1.629603 -3.85115,2.625476 -5.62004,4.136684 -1.9987,2.521014 -3.81634,5.543444 -3.60741,8.879245 -0.57801,4.359554 1.9987,8.23857 4.4083,11.62313 2.54189,2.117086 5.9961,2.374767 8.96978,3.600456 0.84266,0.856586 1.41371,2.172789 1.05854,3.384559 -0.52927,2.785641 0.51535,5.578255 0.11845,8.377829 -0.82179,1.392835 -2.62549,0.940155 -3.94867,0.759098 -3.75366,-1.093375 -7.44464,-2.486189 -10.88493,-4.366499 -1.53209,-0.779991 -2.06833,-2.639409 -3.60741,-3.433318 -3.21046,-2.124059 -4.58239,-5.856829 -6.14236,-9.178711 -1.79673,-2.778696 -1.8803,-6.156282 -1.90119,-9.35281 -0.35517,-4.457042 1.14211,-8.733013 2.51404,-12.897563 1.08642,-1.866377 2.62548,-3.412411 3.9208,-5.132542 1.69924,-2.207643 3.51689,-4.540626 6.17022,-5.633973 z"
   id="path22-3"
   style="stroke-width:0.696412" />
<path
   d="m 261.79753,47.872403 c 3.41938,-1.295325 7.36804,-1.232662 10.66903,0.389981 2.70904,0.724273 4.17151,3.370641 6.70645,4.422231 5.11863,4.589356 8.02266,11.302757 9.06728,18.037065 0.36214,4.060074 -0.24375,8.175879 -2.03353,11.852945 -2.28423,6.824823 -8.16195,11.699712 -14.24859,15.042486 -2.06834,0.626771 -4.08793,1.399787 -6.01004,2.374772 -0.66854,-0.320349 -1.34407,-0.633748 -2.01958,-0.933186 -0.0209,-3.140825 -0.20196,-6.295568 0.0558,-9.42246 0.38303,-1.093375 0.91925,-2.353875 2.15192,-2.695112 2.44439,-0.877479 5.12558,-1.476411 6.75518,-3.690985 3.65618,-2.722978 3.83723,-7.681423 3.58652,-11.845972 0.0487,-5.411131 -3.83025,-10.216369 -8.6564,-12.291685 -2.05441,-0.39694 -4.06007,-0.995859 -6.00306,-1.782808 0.29945,-3.154744 -0.52928,-6.337339 -0.0209,-9.457272 z"
   id="path36-6"
   style="stroke-width:0.696412" />

	<path
   d="m 332.58658,23.67 c 3.45,-2.65 7.89,-2.51 11.99,-1.99 5.39,1.24 9.32,5.29 13.91,8.07 2.76,3.26 5.56,6.55 7.9,10.14 2.66,5.9 4.54,12.18 5.35,18.61 -0.68,9.73 -4.2,19.65 -11.39,26.51 -1.94,2.87 -5.03,4.36 -7.76,6.29 -3.32,3.44 -8.37,3.48 -12.38,5.74 -1.8,1.39 -3.91,-0.6 -3.47,-2.56 0.29,-4.87 -1.58,-10.31 1.2,-14.71 2.52,-2.21 6.45,-1.8 9.03,-4.03 2.56,-2.18 4.76,-4.77 6.47,-7.66 0.75,-5.15 2.38,-10.53 0.45,-15.64 -1.79,-5.25 -4.93,-10.9 -10.54,-12.73 -3.25,-0.96 -6.5,-1.92 -9.61,-3.28 0.12,-4.29 0.23,-8.63 -1.15,-12.76 z"
   id="path38" />

	<path
   d="m 446.82658,23.49 c 1.06,-2.31 3.79,-1.97 5.89,-2.03 2.9,0.08 5.87,-0.86 8.7,0.16 1.68,1.06 1.27,3.15 1.37,4.84 -0.05,17.03 -0.03,34.07 -0.01,51.1 0.26,3.55 -1.89,6.99 -0.63,10.51 1,3.19 1.24,7.08 -1.6,9.41 -4.45,-0.29 -9.02,0.58 -13.38,-0.38 -3.06,-1.82 -2.27,-5.77 -1.5,-8.64 0.22,-15.66 0.02,-31.34 0.08,-47 -0.02,-3.02 1.38,-5.88 1.03,-8.93 -0.02,-3 -2.38,-6.4 0.05,-9.04 z"
   id="path40" />

	<path
   d="m 395.75658,44.61 c 4.11,-3.64 9.88,-1.62 14.84,-2.11 0.65,1.18 2.24,2.23 1.74,3.77 -1.28,5.34 0.04,10.81 -0.19,16.22 -0.23,8.9 0.48,17.8 -0.1,26.69 -0.17,2.65 1.6,6.6 -1.71,7.91 -2.78,0.82 -5.77,0.29 -8.63,0.45 -1.94,-0.14 -4.29,0.38 -5.76,-1.24 -1.98,-2.97 -0.04,-6.52 -0.21,-9.76 0.08,-13.97 -0.01,-27.95 0.02,-41.93 z"
   id="path42" />

	<path
   d="m 469.07658,49.61 c 9.82,-0.59 19.75,0.74 29.48,-0.88 1,0.28 1.99,0.59 2.98,0.93 2.01,4.2 1.28,9.06 0.9,13.54 -0.35,3.31 -4.24,3.21 -6.71,2.94 -6.62,-0.68 -13.28,-0.83 -19.93,-0.57 -2.71,0.27 -5.65,1.88 -8.09,-0.14 0.63,-5.25 -1.05,-10.93 1.37,-15.82 z"
   id="path44" />

	<path
   d="m 128.89,77.98 c 3.36,-1.1 6.3,-3.12 9.51,-4.56 5.06,2.44 11.64,6.36 11.19,12.79 -2.07,1.82 -4.39,3.29 -6.84,4.54 -3.93,2.03 -7.22,5.23 -11.46,6.66 -3.52,0.45 -7.11,-0.96 -9.86,-3.1 0.35,-4.3 0.91,-8.58 1.03,-12.89 1.61,-1.83 4.21,-2.53 6.43,-3.44 z"
   id="path46" />

	<path
   d="m 560.93658,75.7 c 2.4,-0.35 4.93,-1.89 7.34,-0.86 4.81,6.22 9.52,12.61 15.43,17.84 0.58,1.87 -1.6,3.22 -3.21,3.32 -4.58,0.26 -9.18,0.68 -13.77,0.48 -2.64,0.1 -4.37,-2.17 -6,-3.9 -3.13,-3.89 -6.92,-7.27 -9.52,-11.57 -0.71,-1.34 -0.36,-2.93 -0.52,-4.38 3.43,-0.14 6.92,0.09 10.25,-0.93 z"
   id="path48" />

	<path
   d="m 19.92,75.77 c 1.47,-0.26 2.97,-0.26 4.46,-0.34 4.46,6.5 12.77,7.7 20.04,8.23 -0.66,4.38 1.78,10.25 -2.32,13.4 -3.68,0.87 -7.65,0.5 -11.41,0.2 -4.19,-1.94 -8.91,-3.27 -12.05,-6.87 -2.1,-2.12 -5.53,-4.12 -4.94,-7.6 1.6,-2.71 4,-4.84 6.22,-7.02 z"
   id="path50" />

	<path
   d="m 502.22658,79.95 c 2.72,-0.99 6.27,1.44 5.54,4.51 -0.34,3.16 1.07,7.11 -1.36,9.64 -4.72,2.77 -10.43,0.67 -15.57,1.57 -6.29,1.37 -12.74,-0.03 -19.08,0.8 -2.1,0.45 -4.62,-0.94 -4.59,-3.26 0.11,-3.8 0.29,-7.61 0.73,-11.39 1.74,-2.49 5.28,-1.03 7.85,-1.36 8.81,-0.25 17.74,0.72 26.48,-0.51 z"
   id="path52" />

<path
   style="fill:none;stroke:#000000;stroke-width:8.93858;stroke-linecap:butt;stroke-linejoin:miter;stroke-miterlimit:4;stroke-dasharray:none;stroke-opacity:1"
   d="m 618.79928,58.918451 c 0,-14.546633 0,-24.004549 7.27381,-31.278365 7.27382,-7.273817 16.73174,-7.273817 31.27837,-7.273817 14.54663,0 24.00455,0 31.27736,7.273817 7.27282,7.273816 7.27282,16.731732 7.27282,31.278365 0,14.546633 0,24.004548 -7.27282,31.277365 -7.27281,7.272816 -16.73073,7.272816 -31.27736,7.272816 -14.54663,0 -24.00455,0 -31.27837,-7.272816 -7.27381,-7.272817 -7.27381,-16.730732 -7.27381,-31.277365 z"
   id="path712"
   sodipodi:nodetypes="ccccccccc"
   inkscape:original-d="m 618.79928,58.917451 c 0.001,-14.545633 0.001,-24.003549 0,-38.551182 14.54763,0.001 24.00555,0.001 38.55118,0 14.54763,0.001 24.00555,0.001 38.55118,0 10e-4,14.547633 10e-4,24.005549 0,38.551182 10e-4,14.547633 10e-4,24.005548 0,38.551181 -14.54563,0.001 -24.00355,0.001 -38.55118,0 -14.54563,0.001 -24.00355,0.001 -38.55118,0 0.001,-14.545633 0.001,-24.003548 0,-38.551181 z"
   inkscape:path-effect="#path-effect1041" />
<rect
   style="fill:none;stroke:#000000;stroke-width:2.88434;stroke-miterlimit:4;stroke-dasharray:none;stroke-opacity:1"
   id="rect4532"
   width="19.792818"
   height="31.131405"
   x="647.41803"
   y="43.349686"
   rx="1.8411101" />
<rect
   style="fill:none;stroke:#000000;stroke-width:2.89134;stroke-miterlimit:4;stroke-dasharray:none;stroke-opacity:1"
   id="rect4680"
   width="3.3527617"
   height="0.33451384"
   x="644.14111"
   y="47.132725"
   rx="1.88976" />
<rect
   style="fill:none;stroke:#000000;stroke-width:2.89134;stroke-miterlimit:4;stroke-dasharray:none;stroke-opacity:1"
   id="rect4680-7"
   width="3.3527617"
   height="0.33451384"
   x="644.14087"
   y="62.250828"
   rx="1.88976" />
<rect
   style="fill:none;stroke:#000000;stroke-width:2.89134;stroke-miterlimit:4;stroke-dasharray:none;stroke-opacity:1"
   id="rect4680-5"
   width="3.3527617"
   height="0.33451384"
   x="644.14087"
   y="54.691776"
   rx="1.88976" />
<rect
   style="fill:none;stroke:#000000;stroke-width:2.89134;stroke-miterlimit:4;stroke-dasharray:none;stroke-opacity:1"
   id="rect4680-3"
   width="3.3527617"
   height="0.33451384"
   x="644.14087"
   y="69.809875"
   rx="1.88976" />
<rect
   style="fill:none;stroke:#000000;stroke-width:2.89134;stroke-miterlimit:4;stroke-dasharray:none;stroke-opacity:1"
   id="rect4680-56"
   width="3.3527617"
   height="0.33451384"
   x="667.21088"
   y="47.132725"
   rx="1.88976" />
<rect
   style="fill:none;stroke:#000000;stroke-width:2.89134;stroke-miterlimit:4;stroke-dasharray:none;stroke-opacity:1"
   id="rect4680-7-2"
   width="3.3527617"
   height="0.33451384"
   x="667.21063"
   y="62.250828"
   rx="1.88976" />
<rect
   style="fill:none;stroke:#000000;stroke-width:2.89134;stroke-miterlimit:4;stroke-dasharray:none;stroke-opacity:1"
   id="rect4680-5-9"
   width="3.3527617"
   height="0.33451384"
   x="667.21063"
   y="54.691776"
   rx="1.88976" />
<rect
   style="fill:none;stroke:#000000;stroke-width:2.89134;stroke-miterlimit:4;stroke-dasharray:none;stroke-opacity:1"
   id="rect4680-3-1"
   width="3.3527617"
   height="0.33451384"
   x="667.21063"
   y="69.809875"
   rx="1.88976" />
</g>
  </g>
</svg>
